<?xml version="1.0" encoding="UTF-8" standalone="no"?><!DOCTYPE svg PUBLIC "-//W3C//DTD SVG 1.1//EN" "http://www.w3.org/Graphics/SVG/1.1/DTD/svg11.dtd"><svg width="100%" height="100%" viewBox="0 0 5334 5338" version="1.1" xmlns="http://www.w3.org/2000/svg" xmlns:xlink="http://www.w3.org/1999/xlink" xml:space="preserve" xmlns:serif="http://www.serif.com/" style="fill-rule:evenodd;clip-rule:evenodd;stroke-linejoin:round;stroke-miterlimit:2;"><path id="path3763" d="M2518.59,5326.52c-17.712,-19.112 -19.593,-34.174 -21.658,-173.393c-1.079,-72.76 -2.759,-132.292 -3.733,-132.292c-14.338,0 -140.905,-15.266 -193.2,-23.303c-983.521,-151.158 -1766.51,-924.823 -1930.93,-1907.95c-12.996,-77.703 -23.233,-159.97 -23.233,-186.711l0,-20.294l-53.125,2.626c-29.218,1.445 -94.375,3.021 -144.791,3.503c-88.383,0.845 -92.37,0.53 -111.302,-8.794c-34.877,-17.178 -36.628,-23.229 -36.532,-126.238c0.086,-93.483 3.792,-134.031 14.754,-161.428c5.396,-13.485 10.407,-18.118 27.589,-25.51c30.699,-13.206 71.408,-20.749 112.427,-20.831l36.103,-0.073l2.774,-32.291c36.792,-428.302 169.151,-813.634 401.102,-1167.71c81.618,-124.59 184.927,-253.92 283.298,-354.657c29.745,-30.46 30.578,-31.845 20.652,-34.336c-14.013,-3.517 -52.299,-32.744 -61.83,-47.199c-8.585,-13.021 -10.217,-38.979 -3.266,-51.967c5.225,-9.762 37.816,-25.013 69.452,-32.499c12.038,-2.848 23.247,-7.334 24.908,-9.969c1.662,-2.634 7.75,-18.83 13.529,-35.99c9.958,-29.567 11.517,-31.68 29.759,-40.328c19.107,-9.059 19.266,-9.307 21.235,-33.047c2.319,-27.964 13.966,-41.306 39.739,-45.524c8.585,-1.404 31.758,-7.33 51.495,-13.167l35.887,-10.613l38.888,9.13c42.302,9.931 57.701,16.46 70.024,29.686l8.01,8.598l38.985,-26.812c260.306,-179.021 599.331,-318.245 924.403,-379.616c90.47,-17.08 219.378,-34.262 273.352,-36.434l21.268,-0.856l2.673,-52.408c1.47,-28.825 2.681,-76.035 2.69,-104.912c0.017,-57.976 4.201,-76.658 17.987,-80.355c5.013,-1.344 77.551,-2.442 161.197,-2.44c114.266,0.004 154.673,1.314 162.5,5.27c6.574,3.323 13.828,13.676 19.663,28.064c9.017,22.231 9.251,27.004 9.375,191.978l0.128,169.181l31.921,2.698c17.556,1.484 58.337,6.552 90.625,11.263c443.801,64.749 860.316,258.514 1200.37,558.419c62.886,55.461 186.822,182.557 239.306,245.407c300.193,359.483 480.064,784.941 531.589,1257.39l2.84,26.041l152.716,0.1c83.994,0.055 160.051,1.801 169.016,3.88c8.965,2.079 22.09,9.571 29.166,16.647l12.867,12.867l-0,96.795c-0,106.043 -3.207,130.51 -23.692,180.739c-8.761,21.483 -14.696,30.461 -21.309,32.234c-5.041,1.352 -44.001,2.484 -86.578,2.515l-77.411,0.057l-0.89,23.958c-3.93,105.791 -35.071,302.964 -69.132,437.717c-105.064,415.656 -298.937,771.478 -597.061,1095.81c-31.725,34.514 -33.667,37.617 -24.915,39.813c20.12,5.05 49.411,28.886 61.59,50.12c19.125,33.345 15.766,50.569 -12.694,65.088c-9.017,4.6 -27.56,10.969 -41.206,14.152c-13.645,3.184 -26.772,7.001 -29.171,8.484c-2.398,1.482 -8.118,15.276 -12.71,30.653c-10.381,34.762 -17.631,45.289 -33.611,48.799c-14.881,3.268 -20.793,12.744 -20.793,33.324c-0,27.581 -13.232,39.769 -49.769,45.844c-10.185,1.693 -28.759,6.603 -41.277,10.909c-28.757,9.894 -37.366,9.808 -80.007,-0.805c-39.348,-9.793 -56.059,-17.354 -63.031,-28.517c-4.447,-7.121 -9.238,-4.709 -61.411,30.906c-135.56,92.54 -322.858,192.398 -471.172,251.204c-180.809,71.691 -377,124.751 -558.046,150.926c-76.256,11.024 -166.896,20.681 -194.659,20.739l-21.456,0.046l-2.807,53.125c-3.256,61.613 -6.541,74.92 -22.087,89.462c-24.92,23.311 -29.472,24.079 -142.604,24.079l-104.572,0l-10.178,-10.982l-0,-0.001Zm207.784,-34.502c26.977,-8.607 28.343,-15.895 32.474,-173.266c3.949,-150.418 9.26,-386.763 16.15,-718.75c2.449,-118.021 7.008,-318.646 10.13,-445.833c4.388,-178.744 4.848,-329.489 2.024,-663.911c-3.963,-469.477 -4.749,-449.44 18.098,-461.671c13.805,-7.39 257.96,-11.294 734.332,-11.74c224.584,-0.21 452.396,-2.305 506.25,-4.655c53.854,-2.35 328.542,-4.971 610.417,-5.824c518.868,-1.571 558.01,-2.71 585.897,-17.059c14.407,-7.413 23.165,-26.909 29.027,-64.618c5.809,-37.369 3.261,-139.557 -3.806,-152.635c-3.102,-5.741 -10.821,-10.324 -20.544,-12.201c-22.957,-4.429 -274.232,-4.162 -1411.41,1.504c-629.47,3.136 -1031.43,3.622 -1041.67,1.259c-19.45,-4.489 -33.269,-18.793 -39.366,-40.748c-5.57,-20.057 -5.594,-337.104 -0.029,-396.868c5.848,-62.818 15.737,-256.426 20.644,-404.167c2.322,-69.895 6.198,-168.333 8.615,-218.75c2.416,-50.416 5.154,-181.666 6.085,-291.666c1.018,-120.39 5.404,-277.123 11.017,-393.75c5.129,-106.563 9.235,-231.25 9.124,-277.084c-0.328,-136.082 -5.888,-457.563 -8.093,-467.983c-3.787,-17.888 -22.41,-21.419 -119.221,-22.6c-94.53,-1.154 -117.621,1.223 -123.785,12.74c-2.377,4.441 -2.09,113.468 0.746,283.607c3.554,213.214 3.441,304.623 -0.495,399.898c-16.71,404.467 -21.591,670.38 -23.506,1280.5c-1.052,335.009 -2.94,492.945 -5.962,498.591c-7.865,14.695 -38.473,37.692 -60.318,45.318c-19.944,6.962 -50.62,7.423 -485.872,7.306c-255.521,-0.068 -688.646,-1.006 -962.5,-2.083c-633.786,-2.493 -878.553,2.12 -929.969,17.524c-8.651,2.592 -18.578,7.86 -22.059,11.707c-11.474,12.678 -15.706,52.978 -13.571,129.227c2.207,78.802 6.787,99.046 24.622,108.836c13.627,7.482 134.342,7.873 286.811,0.929c67.604,-3.078 221.354,-7.469 341.666,-9.757c227.339,-4.323 1773.37,-13.268 1791.67,-10.366c5.729,0.909 17.604,2.788 26.388,4.176c14.125,2.232 16.99,4.782 24.78,22.061c8.344,18.508 8.957,28.658 11.616,192.455c1.544,95.104 1.21,273.229 -0.743,395.833c-3.324,208.752 -5.032,279.609 -16.015,664.583c-8.617,302.075 -17.838,877.494 -15.489,966.667c2.579,97.95 9.155,176.731 17.031,204.034c7.019,24.335 18.847,27.43 98.265,25.717c35.521,-0.766 71.765,-3.684 80.541,-6.485l-0.001,0Zm174.084,-185.845c330.323,-32.602 663.838,-139.926 958.398,-308.409c127.987,-73.206 316.431,-207.805 328.407,-234.569c3.862,-8.631 9.825,-14.228 16.667,-15.647c17.046,-3.534 23.057,-8.134 24.575,-18.805c2.085,-14.657 12.315,-24.068 29.359,-27.009c12.752,-2.201 29.404,-17.02 108.946,-96.957c96.722,-97.2 154.169,-162.818 224.874,-256.858c206.746,-274.98 349.916,-589.088 422.563,-927.084c21.102,-98.176 40.808,-234.394 46.113,-318.75c1.441,-22.916 3.485,-45.885 4.543,-51.041c1.904,-9.284 1.461,-9.375 -45.244,-9.375l-47.167,-0l-5.183,63.541c-49.897,611.674 -355.991,1194.73 -834.51,1589.61c-39.671,32.737 -124.578,97.335 -145.905,111.007c-7.009,4.493 -14.396,16.086 -20.286,31.836c-29.122,77.871 -85.815,123.232 -114.459,91.582c-3.738,-4.131 -8.095,-12.133 -9.681,-17.782l-2.885,-10.271l-39.583,22.583c-283.415,161.697 -609.571,263.046 -943.75,293.26l-54.167,4.897l-1.43,45.287l-1.43,45.286l18.555,0c10.205,0 47.411,-2.848 82.68,-6.329Zm-404.578,-171.796c0.025,-13.177 2.845,-117.708 6.265,-232.292c12.255,-410.683 14.406,-501.776 14.759,-625c0.197,-68.75 2.018,-167.187 4.046,-218.75c7.33,-186.38 12.678,-730.909 8.29,-844.203c-4.758,-122.851 -6.122,-133.448 -18.004,-139.807c-12.362,-6.616 -101.424,-15.16 -192.681,-18.485c-43.649,-1.591 -154.274,-0.763 -245.833,1.84c-91.56,2.602 -348.347,5.775 -570.639,7.05c-456.142,2.617 -935.198,8.594 -1030.21,12.855l-63.542,2.849l0,14.589c0,29.906 13.674,134.601 27.587,211.229c84.278,464.163 304.814,880.197 641.689,1210.53c177.271,173.826 352.478,298.355 576.558,409.79c259.506,129.053 506.554,197.973 820.833,228.993c8.021,0.792 15.99,1.74 17.708,2.107c1.719,0.366 3.147,-10.115 3.172,-23.292Zm377.111,17.636c319.144,-30.573 632.065,-130.591 911.086,-291.205l56.204,-32.353l6.474,-36.521c4.102,-23.144 13.731,-53.154 26.289,-81.934c14.978,-34.328 20.307,-52.164 21.828,-73.062c1.914,-26.298 3.212,-29.146 26.567,-58.333c13.505,-16.878 25.654,-34.887 26.999,-40.021c3.232,-12.337 -10.737,-38.861 -35.68,-67.749c-10.883,-12.604 -38.137,-48.229 -60.564,-79.166c-52.54,-72.479 -60.133,-81.291 -167.599,-194.518c-121.993,-128.532 -221.843,-241.051 -278.482,-313.816c-49.081,-63.054 -81.364,-102.472 -222.164,-271.259c-116.572,-139.743 -122.822,-146.988 -191.804,-222.357c-89.046,-97.29 -165.966,-174.163 -169.136,-169.033c-6.801,11.004 -10.275,233.627 -10.375,664.733c-0.093,402.997 -4.069,874.565 -9.986,1184.38c-0.93,48.698 -0.332,88.541 1.328,88.541c1.66,0 32.717,-2.845 69.015,-6.322Zm1349.53,-230.534c2.844,-4.601 -77.872,-35.162 -87.811,-33.248c-11.146,2.147 -9.308,12.935 3.227,18.943c11.379,5.454 57.633,16.368 73.278,17.29c5.02,0.295 10.108,-1.047 11.306,-2.985Zm85.19,-14.475c9.828,-11.842 -36.126,-96.864 -64.356,-119.07c-10.803,-8.497 -30.853,-12.09 -30.853,-5.529c0,1.78 12.235,18.709 27.19,37.621c14.954,18.911 31.87,44.969 37.59,57.905c15.275,34.537 21.198,40.196 30.429,29.073Zm-408.413,-13.087c27.76,-31.616 40.878,-64.183 50.761,-126.011c7.734,-48.387 36.02,-81.749 109.918,-129.636c15.798,-10.238 42.986,-30.157 60.416,-44.265c17.431,-14.108 47.514,-37.633 66.852,-52.278c19.337,-14.645 46.056,-37.524 59.375,-50.842c21.517,-21.518 24.215,-26.092 24.215,-41.049c0,-18.075 -10.964,-43.513 -23.515,-54.557c-4.254,-3.743 -15.552,-10.736 -25.107,-15.538c-20.725,-10.417 -112.676,-78.602 -199.294,-147.783c-112.531,-89.878 -533.548,-519.688 -676.167,-690.289c-97.831,-117.026 -376.295,-419.404 -399.365,-433.662c-8.265,-5.108 -24.472,-9.74 -38.545,-11.016c-23.831,-2.161 -24.49,-1.932 -35.312,12.256c-9.315,12.212 -11.028,18.67 -11.028,41.568c0,49.884 10.562,66.665 101.321,160.981c119.711,124.403 147.37,156.322 365.277,421.539c105.03,127.833 153.514,185.804 255.843,305.909c15.78,18.521 70.765,78.113 122.189,132.426c103.216,109.017 135.528,146.412 172.092,199.165c13.501,19.48 36.615,52.132 51.364,72.561c37.404,51.806 53.789,79.881 53.789,92.162c0,6.124 -7.785,20.474 -18.639,34.355c-29.487,37.715 -34.155,49.227 -40.878,100.827c-3.458,26.532 -6.899,35.424 -23.199,59.937c-16.342,24.575 -19.992,34.03 -24.967,64.679c-5.997,36.944 -7.805,94.725 -3.33,106.389c3.958,10.314 12.186,7.831 25.934,-7.828Zm292.371,-46.508c-0,-5.537 -1.132,-5.822 -6.25,-1.574c-3.438,2.853 -6.25,5.895 -6.25,6.76c-0,0.866 2.812,1.574 6.25,1.574c3.437,-0 6.25,-3.042 6.25,-6.76Zm165.126,-28.569c1.3,-3.388 -1.103,-10.625 -5.339,-16.079c-4.237,-5.455 -16.017,-20.881 -26.178,-34.28c-27.141,-35.792 -37.215,-43.642 -54.443,-42.426c-19.939,1.409 -20.72,15.577 -1.138,20.651c7.395,1.916 15.671,7.661 18.391,12.765c2.719,5.105 15.03,21.937 27.357,37.406c22.246,27.916 36.217,35.338 41.35,21.963Zm97.663,-104.563c9.788,-10.418 9.844,-10.853 1.987,-15.25c-4.448,-2.49 -19.858,-15.476 -34.243,-28.859c-19.93,-18.54 -29.157,-24.333 -38.762,-24.333c-7.192,0 -12.605,2.2 -12.605,5.122c0,5.046 66.214,74.045 71.057,74.045c1.37,0 7.025,-4.826 12.566,-10.725Zm-38.238,-395.525c240.205,-298.138 406.042,-669.086 467.119,-1044.86c9.95,-61.222 24.996,-189.699 24.998,-213.469l0.002,-16.672l-155.21,0.74c-85.366,0.406 -304.273,2.896 -486.46,5.533c-182.188,2.636 -542.676,6.229 -801.085,7.984c-258.409,1.755 -471.01,4.365 -472.445,5.801c-4.107,4.107 36.885,52.516 115.328,136.192c103.841,110.771 168.489,184.115 231.375,262.5c65.697,81.889 84.694,102.604 283.62,309.278c293.362,304.786 409.506,418.957 500.893,492.386c40.301,32.38 92.942,67.717 124.467,83.552c11.477,5.764 35.627,23.242 53.668,38.839l32.802,28.36l20.323,-23.082c11.176,-12.696 38.449,-45.583 60.605,-73.083Zm-4075.52,-1583.06c0.786,-0.786 4.155,-29.295 7.487,-63.353c27.753,-283.654 119.335,-589.123 252.792,-843.175c113.014,-215.137 241.247,-388.617 417.507,-564.826c110.386,-110.353 214.006,-197.695 317.209,-267.376c21.023,-14.195 26.181,-20.103 30.677,-35.139c16.661,-55.712 64.642,-107.659 99.441,-107.659c10.015,-0 24.453,15.571 28.114,30.32c1.943,7.828 4.401,10.369 7.6,7.857c11.047,-8.675 125.818,-68.251 177.646,-92.214c242.002,-111.891 534.173,-190.129 772.609,-206.889l39.891,-2.804l-0,-15.423c-0,-8.483 1.2,-29.626 2.668,-46.984l2.667,-31.56l-16.209,1.64c-8.915,0.903 -37.772,3.688 -64.126,6.191c-439.674,41.746 -848.61,200.498 -1205.21,467.873c-47.132,35.339 -61.458,48.254 -61.458,55.406c0,12.924 -10.77,22.42 -25.428,22.42c-12.467,0 -13.548,1.307 -18.034,21.799c-2.735,12.493 -20.534,24.034 -37.067,24.034c-20.044,0 -169.707,148.976 -267.897,266.667c-305.471,366.137 -499.561,832.482 -545.234,1310.04c-3.487,36.462 -6.34,67.207 -6.34,68.322c0,2.206 88.355,-2.832 90.694,-5.171Zm1333.94,-2.346c399.268,-3.969 586.654,-9.239 611.819,-17.207c15.717,-4.977 17.753,-15.924 6.215,-33.418c-4,-6.064 -48.778,-55.751 -99.508,-110.416c-109.387,-117.874 -143.521,-156.573 -200.795,-227.648c-67.967,-84.346 -100.784,-120.391 -256.895,-282.16c-80.721,-83.646 -184.167,-191.43 -229.881,-239.519c-104.118,-109.53 -232.241,-231.38 -301.534,-286.771c-44.975,-35.953 -108.836,-78.112 -149.893,-98.956c-5.729,-2.909 -22.346,-16.7 -36.927,-30.646l-26.51,-25.358l-22.928,25c-66.323,72.315 -164.684,204.143 -226.949,304.167c-180.936,290.66 -297.011,631.083 -329.657,966.814l-5.281,54.314l381.259,1.082c209.692,0.596 382.111,1.936 383.153,2.978c2.526,2.526 40.336,2.356 504.312,-2.256Zm774.283,-48.104l14.755,-14.755l-2.36,-31.202c-3.987,-52.712 -3.925,-52.63 -171.19,-229.704c-61.732,-65.353 -104.666,-115.991 -351.232,-414.264c-169.204,-204.686 -222.742,-266.535 -311.523,-359.878c-113.022,-118.829 -141.053,-151.17 -187.192,-215.968c-95.644,-134.322 -105.263,-150.282 -100.947,-167.48c1.287,-5.127 10.499,-18.454 20.471,-29.616c39.019,-43.677 47.85,-58.275 50.661,-83.748c4.423,-40.073 6.232,-45.57 23.956,-72.802c19.576,-30.078 26.902,-56.279 30.765,-110.033c4.764,-66.275 -3.265,-81.831 -28.365,-54.961c-22.033,23.587 -40.201,65.822 -47.306,109.973c-3.568,22.177 -9.997,47.199 -14.285,55.605c-12.071,23.66 -60.494,66.47 -110.758,97.918c-105.903,66.258 -206.824,147.83 -212.913,172.092c-3.072,12.24 4.881,40.701 15.579,55.749c4.27,6.007 17.652,15.783 29.738,21.726c24.1,11.851 116.216,80.236 213.641,158.603c117.765,94.729 519.385,506.657 672.733,690c119.805,143.239 378.744,421.045 402.267,431.577c6.875,3.078 20.656,5.67 30.625,5.76c15.309,0.138 20.417,-2.129 32.88,-14.592Zm2453.09,-13.37c-53.667,-465.922 -223.987,-867.118 -518.825,-1222.11c-53.316,-64.192 -206.387,-217.58 -270.682,-271.241c-144.457,-120.564 -285.744,-212.844 -452.083,-295.274c-217.78,-107.921 -443.381,-178.834 -675,-212.173c-83.922,-12.08 -120.673,-15.064 -117.246,-9.518c2.888,4.672 0.255,72.194 -14.08,361.144c-4.542,91.551 -8.259,225.614 -8.26,297.917c-0.001,72.302 -1.848,165.209 -4.103,206.459c-6.287,114.999 -13.21,388.97 -14.739,583.334c-0.757,96.25 -3.618,242.91 -6.357,325.913c-5.364,162.532 -3.084,243.123 7.168,253.374c5.361,5.362 135.814,6.129 1041.55,6.129l1035.42,0l-2.759,-23.958Zm-2434.45,-182.292c1.633,-16.041 6.036,-101.354 9.783,-189.583c7.549,-177.771 9.534,-374.494 11.424,-1132.29l1.281,-513.541l-15.051,-0c-20.916,-0 -142.021,15.195 -201.184,25.242c-160.64,27.281 -341.537,80.335 -496.724,145.682c-66.471,27.989 -202.913,95.781 -247.916,123.178l-27.084,16.488l-2.572,24.913c-2.758,26.706 -11.582,51.472 -34.691,97.361c-7.992,15.868 -17.713,41.522 -21.603,57.009c-5.802,23.1 -12.562,35.41 -37.645,68.55c-16.814,22.216 -30.572,44.502 -30.572,49.525c0,14.13 10.984,32.529 43.764,73.302c16.581,20.625 44.268,57.187 61.528,81.25c39.19,54.638 53.509,71.036 165.551,189.583c112.895,119.449 202.472,219.637 249.358,278.895c81.42,102.904 112.658,141.304 172.86,212.491c34.754,41.096 90.97,108.545 124.925,149.888c70.17,85.438 222.819,252.547 242.103,265.037c22.822,14.781 29.07,10.359 32.465,-22.978Zm-1502.68,-1344.22c1.648,-2.667 -12.184,-19.692 -32.534,-40.042l-35.402,-35.402l-10.97,7.188c-10.107,6.622 -15.151,18.686 -7.845,18.762c1.719,0.017 16.806,12.205 33.528,27.083c29.629,26.362 46.413,33.43 53.223,22.411Zm116.374,-84.678c0,-5.543 -4.085,-9.127 -13.05,-11.45c-9.892,-2.564 -19.231,-11.89 -38.596,-38.544c-26.231,-36.103 -38.684,-45.083 -48.641,-35.075c-4.704,4.729 -0.558,12.014 25.729,45.22c37.823,47.776 41.4,50.707 59.975,49.144c11.223,-0.944 14.583,-3.086 14.583,-9.295Zm37.201,-55.474c-4.129,-6.302 -18.407,-25.175 -31.729,-41.939c-13.322,-16.765 -24.222,-33.246 -24.222,-36.625c0,-7.993 -15.204,-37.748 -21.174,-41.438c-2.544,-1.572 -7.541,0.056 -11.103,3.619c-5.859,5.859 -5.574,8.592 2.986,28.618c13.172,30.817 52.253,88.638 63.61,94.113c5.187,2.501 13.865,4.674 19.285,4.829c9.798,0.28 9.812,0.216 2.347,-11.177Zm33.632,-59.375c1.417,-2.291 0.59,-4.166 -1.837,-4.166c-2.427,-0 -4.413,1.875 -4.413,4.166c0,2.292 0.827,4.167 1.838,4.167c1.01,0 2.996,-1.875 4.412,-4.167Zm58.581,-42.066c5.426,-8.779 -9.028,-16.173 -49.37,-25.254c-54.874,-12.351 -60.541,-5.931 -12.308,13.947c37.89,15.616 56.865,19.094 61.678,11.307Z" style="fill-rule:nonzero;"/></svg>